<svg xmlns="http://www.w3.org/2000/svg" version="1.1" xmlns:xlink="http://www.w3.org/1999/xlink" xmlns:svgjs="http://svgjs.dev/svgjs" width="2000" height="671" viewBox="0 0 2000 671"><g transform="matrix(1,0,0,1,-1.2121212121210192,-0.027025244991705222)"><svg viewBox="0 0 396 133" data-background-color="#ffffff" preserveAspectRatio="xMidYMid meet" height="671" width="2000" xmlns="http://www.w3.org/2000/svg" xmlns:xlink="http://www.w3.org/1999/xlink"><g id="tight-bounds" transform="matrix(1,0,0,1,0.23999999999995225,0.005356717710725434)"><svg viewBox="0 0 395.52 132.9892119697676" height="132.9892119697676" width="395.52"><g><svg viewBox="0 0 660.8571215796605 222.20587536278308" height="132.9892119697676" width="395.52"><g transform="matrix(1,0,0,1,265.3371215796606,65.42776716757658)"><svg viewBox="0 0 395.52 91.35034102762992" height="91.35034102762992" width="395.52"><g id="textblocktransform"><svg viewBox="0 0 395.52 91.35034102762992" height="91.35034102762992" width="395.52" id="textblock"><g><svg viewBox="0 0 395.52 91.35034102762992" height="91.35034102762992" width="395.52"><g transform="matrix(1,0,0,1,0,0)"><svg width="395.52" viewBox="-0.7909090909090907 -37.75 169.92090909090908 39.25" height="91.35034102762992" data-palette-color="#61777f"><path d="M30.25-32.5L18.25 1Q17.4 1.5 16.45 1.5L16.45 1.5 3.1-32.5-0.75-33.5Q-0.9-34.45-0.5-35.25L-0.5-35.25Q0.4-35.2 1.65-35.15 2.9-35.1 4.17-35.05 5.45-35 6.35-35L6.35-35Q7.8-35 9.8-35.1 11.8-35.2 13.2-35.25L13.2-35.25Q13.35-34.3 13.1-33.5L13.1-33.5Q12.05-33.35 11.08-33.13 10.1-32.9 9.1-32.5L9.1-32.5 16.35-13.1Q17.1-11.05 17.63-9.33 18.15-7.6 18.45-5.85L18.45-5.85 18.55-5.85Q19.1-7.65 19.68-9.58 20.25-11.5 20.85-13.35L20.85-13.35 27.5-32.5 23.65-33.5Q23.5-34.45 23.9-35.25L23.9-35.25Q25.25-35.2 26.45-35.1 27.65-35 29.05-35L29.05-35Q30.5-35 31.78-35.1 33.05-35.2 34.45-35.25L34.45-35.25Q34.6-34.3 34.35-33.5L34.35-33.5Q33.3-33.35 32.2-33.13 31.1-32.9 30.25-32.5L30.25-32.5ZM57.25-22.5L49.7-13.25 57.15-2.5Q58-2.05 58.85-1.9 59.7-1.75 60.5-1.5L60.5-1.5Q60.65-0.55 60.25 0.25L60.25 0.25Q58.9 0.15 57.47 0.08 56.05 0 54.65 0L54.65 0Q53.25 0 51.6 0.08 49.95 0.15 48.55 0.25L48.55 0.25Q48.4-0.7 48.65-1.5L48.65-1.5 51.65-2.35 46.7-9.5 41.1-2.5 44.45-1.5Q44.6-0.55 44.2 0.25L44.2 0.25Q42.85 0.15 41.77 0.08 40.7 0 39.3 0L39.3 0Q37.9 0 36.75 0.08 35.6 0.15 34.2 0.25L34.2 0.25Q34.05-0.7 34.3-1.5L34.3-1.5Q35.3-1.65 36.25-1.85 37.2-2.05 37.9-2.5L37.9-2.5 45.25-11.65 37.85-22.5 34-23.5Q33.85-24.45 34.25-25.25L34.25-25.25Q35.6-25.2 37.27-25.1 38.95-25 40.35-25L40.35-25Q41.8-25 43.6-25.1 45.4-25.2 46.8-25.25L46.8-25.25Q46.95-24.3 46.7-23.5L46.7-23.5Q45.75-23.35 44.77-23.05 43.8-22.75 43.35-22.5L43.35-22.5 48.25-15.4 53.95-22.5 50-23.5Q49.85-24.45 50.25-25.25L50.25-25.25Q51.6-25.2 52.95-25.1 54.3-25 55.7-25L55.7-25Q57.15-25 58.35-25.1 59.55-25.2 60.95-25.25L60.95-25.25Q61.1-24.3 60.85-23.5L60.85-23.5Q59.9-23.3 58.97-23.1 58.05-22.9 57.25-22.5L57.25-22.5ZM65.5-7.5L66-2.2Q67.05-1.7 68.12-1.5 69.2-1.3 70.55-1.3L70.55-1.3Q72.59-1.3 74.2-2.2 75.8-3.1 75.8-5.1L75.8-5.1Q75.8-6.15 75.22-7.05 74.65-7.95 73.22-8.9 71.8-9.85 69.14-11.05L69.14-11.05Q66.25-12.4 64.64-14.18 63.05-15.95 63.05-19.1L63.05-19.1Q63.05-21.65 64.32-23.13 65.59-24.6 67.62-25.25 69.64-25.9 71.9-25.9L71.9-25.9Q73.84-25.9 75.77-25.53 77.7-25.15 79.2-24.5L79.2-24.5Q79.2-24.25 79.22-23.95 79.25-23.65 79.25-23.4L79.25-23.4Q79.25-20.35 78.3-17.65L78.3-17.65Q78.09-17.6 77.92-17.57 77.75-17.55 77.55-17.55L77.55-17.55Q76.8-17.55 76.05-17.85L76.05-17.85 75.25-23.25Q74.59-23.45 73.75-23.58 72.9-23.7 72.05-23.7L72.05-23.7Q70.9-23.7 69.77-23.38 68.64-23.05 67.92-22.28 67.2-21.5 67.2-20.1L67.2-20.1Q67.2-19.15 67.62-18.3 68.05-17.45 69.32-16.53 70.59-15.6 73.15-14.35L73.15-14.35Q77.15-12.45 78.77-10.68 80.4-8.9 80.4-6.25L80.4-6.25Q80.4-3.7 79.05-2.1 77.7-0.5 75.52 0.25 73.34 1 70.9 1L70.9 1Q68.55 1 66.52 0.63 64.5 0.25 62.45-1L62.45-1 62.45-1.85Q62.45-3.2 62.62-4.63 62.8-6.05 63.34-7.7L63.34-7.7Q63.65-7.75 63.84-7.75L63.84-7.75Q64.75-7.75 65.5-7.5L65.5-7.5ZM105.09-2.75L117.09-2.75 118.44-8.9Q119.04-9 119.39-8.97 119.74-8.95 120.24-8.75L120.24-8.75Q120.54-6.6 120.64-4.4 120.74-2.2 120.74 0L120.74 0 102.59 0Q101.19 0 99.27 0.08 97.34 0.15 95.94 0.25L95.94 0.25Q95.79-0.7 96.04-1.5L96.04-1.5Q97.14-1.75 98.12-1.95 99.09-2.15 99.84-2.5L99.84-2.5 99.84-32.5 95.99-33.5Q95.84-34.45 96.24-35.25L96.24-35.25Q97.59-35.2 99.27-35.1 100.94-35 102.34-35L102.34-35Q103.79-35 105.79-35.1 107.79-35.2 109.19-35.25L109.19-35.25Q109.34-34.3 109.09-33.5L109.09-33.5Q108.09-33.4 107.09-33.23 106.09-33.05 105.09-32.5L105.09-32.5 105.09-2.75ZM131.59-24.95L131.59-2.5 134.94-1.5Q135.09-0.55 134.69 0.25L134.69 0.25Q133.34 0.15 131.91 0.08 130.49 0 129.09 0L129.09 0Q127.69 0 126.04 0.08 124.39 0.15 122.99 0.25L122.99 0.25Q122.84-0.7 123.09-1.5L123.09-1.5Q124.04-1.75 124.96-1.95 125.89-2.15 126.59-2.5L126.59-2.5 126.59-22 122.44-22.4Q122.29-23.4 122.69-24.15L122.69-24.15Q124.49-24.4 126.31-24.75 128.14-25.1 129.69-25.5L129.69-25.5Q130.19-25.45 130.64-25.33 131.09-25.2 131.59-24.95L131.59-24.95ZM128.24-30.05L128.24-30.05Q127.39-30.05 126.69-30.6 125.99-31.15 125.59-31.95 125.19-32.75 125.19-33.45L125.19-33.45Q125.19-34.1 125.74-34.77 126.29-35.45 127.11-35.93 127.94-36.4 128.74-36.4L128.74-36.4Q129.64-36.4 130.34-35.83 131.04-35.25 131.41-34.48 131.79-33.7 131.79-33L131.79-33Q131.79-32.35 131.26-31.65 130.74-30.95 129.91-30.5 129.09-30.05 128.24-30.05ZM152.19-31L151.64-35.4Q150.69-35.8 149.69-35.8L149.69-35.8Q147.69-35.8 146.74-33.73 145.79-31.65 145.79-28L145.79-28 145.79-23.75 152.79-23.75Q152.79-23.15 152.66-22.4 152.54-21.65 152.29-21.25L152.29-21.25 145.79-21.25 145.79-2.5 150.64-1.5Q150.79-0.55 150.39 0.25L150.39 0.25Q149.49 0.2 148.16 0.15 146.84 0.1 145.54 0.05 144.24 0 143.29 0L143.29 0Q141.89 0 140.24 0.08 138.59 0.15 137.19 0.25L137.19 0.25Q137.04-0.7 137.29-1.5L137.29-1.5Q138.19-1.7 139.09-1.93 139.99-2.15 140.79-2.5L140.79-2.5 140.79-21.25 137.54-21.25Q137.49-21.75 137.66-22.63 137.84-23.5 138.04-23.75L138.04-23.75 140.79-23.75 140.79-26.75Q140.79-31.85 143.14-34.8 145.49-37.75 149.29-37.75L149.29-37.75Q151.29-37.75 152.56-37.43 153.84-37.1 155.19-36.25L155.19-36.25Q155.04-34.85 154.81-33.48 154.59-32.1 154.24-30.8L154.24-30.8Q153.89-30.75 153.24-30.78 152.59-30.8 152.19-31L152.19-31ZM163.63 0.8L163.63 0.8Q162.03 0.8 160.73 0.2 159.43-0.4 158.71-1.88 157.98-3.35 157.98-5.95L157.98-5.95 157.98-21.9 154.48-21.9Q154.18-22.45 154.16-23.03 154.13-23.6 154.23-24.15L154.23-24.15Q156.33-24.15 157.38-24.7 158.43-25.25 159.01-26.6 159.58-27.95 160.23-30.25L160.23-30.25 162.88-30.25 162.88-24.65 168.13-24.65Q168.83-23.2 168.13-21.9L168.13-21.9 162.88-21.9 162.88-7.2Q162.88-4.9 163.11-3.73 163.33-2.55 163.88-2.13 164.43-1.7 165.38-1.7L165.38-1.7Q166.18-1.7 166.93-2 167.68-2.3 168.38-2.7L168.38-2.7Q169.08-2.25 169.13-1.2L169.13-1.2Q168.58-0.55 167.13 0.13 165.68 0.8 163.63 0.8Z" opacity="1" transform="matrix(1,0,0,1,0,0)" fill="#61777f" class="wordmark-text-0" data-fill-palette-color="primary" id="text-0"></path></svg></g></svg></g></svg></g></svg></g><g><svg viewBox="0 0 222.20587536278308 222.20587536278308" height="222.20587536278308" width="222.20587536278308"><g><svg></svg></g><g id="icon-0"><svg viewBox="0 0 222.20587536278308 222.20587536278308" height="222.20587536278308" width="222.20587536278308"><g><path d="M0 111.103c0-61.36 49.742-111.103 111.103-111.103 61.36 0 111.103 49.742 111.103 111.103 0 61.36-49.742 111.103-111.103 111.103-61.36 0-111.103-49.742-111.103-111.103zM111.103 213.968c56.811 0 102.865-46.054 102.865-102.865 0-56.811-46.054-102.865-102.865-102.865-56.811 0-102.865 46.054-102.865 102.865 0 56.811 46.054 102.865 102.865 102.865z" data-fill-palette-color="accent" fill="#c8c8c8" stroke="transparent"></path></g><g transform="matrix(1,0,0,1,47.00501657288727,47.00844441273303)"><svg viewBox="0 0 128.19584221700853 128.18898653731702" height="128.18898653731702" width="128.19584221700853"><g><svg xmlns="http://www.w3.org/2000/svg" xmlns:xlink="http://www.w3.org/1999/xlink" version="1.0" x="0" y="0" viewBox="9.999997592495907 10.002 80.0000024075041 79.99572415337089" enable-background="new 0 0 100 100" xml:space="preserve" height="128.18898653731702" width="128.19584221700853" class="icon-dxe-0" data-fill-palette-color="accent" id="dxe-0"><path fill="none" stroke="#C8C8C8" stroke-linecap="round" stroke-linejoin="round" stroke-miterlimit="10" d="M46.72 44.191L46.722 44.172C48.352 44.848 50.048 45.16 51.716 45.16L51.728 45.164A13 13 0 0 0 56.721 44.172V44.191 44.172A13 13 0 0 1 51.728 45.164L51.716 45.16C50.048 45.16 48.352 44.848 46.722 44.172z"></path><path fill="none" stroke="#C8C8C8" stroke-linecap="round" stroke-linejoin="round" stroke-miterlimit="10" d="M51.73 35.005C51.73 24.881 59.93 16.669 70.061 16.669 70.062 26.795 61.853 35.005 51.73 35.005"></path><path fill="none" stroke="#C8C8C8" stroke-linecap="round" stroke-linejoin="round" stroke-miterlimit="10" d="M51.712 45.165V33.34H51.712z"></path><path fill="none" stroke="#C8C8C8" stroke-linecap="round" stroke-linejoin="round" stroke-miterlimit="10" d="M53.333 56.447V63.116z"></path><path fill="none" stroke="#C8C8C8" stroke-linecap="round" stroke-linejoin="round" stroke-miterlimit="10" d="M48.332 56.447V59.783z"></path><path fill="none" stroke="#C8C8C8" stroke-linecap="round" stroke-linejoin="round" stroke-miterlimit="10" d="M38.331 56.447V59.783z"></path><path fill="none" stroke="#C8C8C8" stroke-linecap="round" stroke-linejoin="round" stroke-miterlimit="10" d="M28.333 56.447V59.783z"></path><path fill="none" stroke="#C8C8C8" stroke-linecap="round" stroke-linejoin="round" stroke-miterlimit="10" d="M18.332 56.447V59.783z"></path><path fill="none" stroke="#C8C8C8" stroke-linecap="round" stroke-linejoin="round" stroke-miterlimit="10" d="M82.756 80.589L79.485 81.243z"></path><path fill="none" stroke="#C8C8C8" stroke-linecap="round" stroke-linejoin="round" stroke-miterlimit="10" d="M43.333 56.447V63.116z"></path><path fill="none" stroke="#C8C8C8" stroke-linecap="round" stroke-linejoin="round" stroke-miterlimit="10" d="M33.332 56.447V63.116z"></path><path fill="none" stroke="#C8C8C8" stroke-linecap="round" stroke-linejoin="round" stroke-miterlimit="10" d="M23.333 56.447V63.116z"></path><path fill="none" stroke="#C8C8C8" stroke-linecap="round" stroke-linejoin="round" stroke-miterlimit="10" d="M78.274 69.778L75.505 71.631z"></path><path fill="none" stroke="#C8C8C8" stroke-linecap="round" stroke-linejoin="round" stroke-miterlimit="10" d="M70.001 61.5L68.148 64.273z"></path><path fill="none" stroke="#C8C8C8" stroke-linecap="round" stroke-linejoin="round" stroke-miterlimit="10" d="M59.185 57.023L58.539 60.294z"></path><path fill="none" stroke="#C8C8C8" stroke-linecap="round" stroke-linejoin="round" stroke-miterlimit="10" d="M64.814 58.732L62.261 64.887z"></path><path fill="none" stroke="#C8C8C8" stroke-linecap="round" stroke-linejoin="round" stroke-miterlimit="10" d="M74.548 65.233L69.832 69.947z"></path><path fill="none" stroke="#C8C8C8" stroke-linecap="round" stroke-linejoin="round" stroke-miterlimit="10" d="M81.049 74.967L74.888 77.518z"></path><path fill="none" stroke="#C8C8C8" stroke-linecap="round" stroke-linejoin="round" stroke-miterlimit="10" d="M17.599 56.447H53.333C67.095 56.447 78.662 65.725 82.197 78.358 89.216 67.412 87.955 52.691 78.384 43.114L78.393 43.092A18.1 18.1 0 0 0 65.6 37.794L65.573 37.816C63.219 37.816 60.862 38.279 58.652 39.197L58.65 39.172A18 18 0 0 1 51.73 40.546H51.711C49.402 40.546 47.052 40.112 44.79 39.172L44.789 39.197A18.1 18.1 0 0 0 37.866 37.816L37.839 37.794A18.1 18.1 0 0 0 25.046 43.092L25.055 43.114C21.244 46.925 18.78 51.567 17.599 56.447"></path><path fill="none" stroke="#C8C8C8" stroke-linecap="round" stroke-linejoin="round" stroke-miterlimit="10" d="M70.001 86.45C70.001 77.241 62.538 69.782 53.333 69.782L53.335 69.778H17.597C18.775 74.666 21.241 79.302 25.053 83.113 32.268 90.327 42.987 91.859 51.72 87.769 58.847 91.109 67.273 90.635 74.06 86.45z"></path><path fill="none" stroke="#C8C8C8" stroke-linecap="round" stroke-linejoin="round" stroke-miterlimit="10" d="M10 66.445A3.333 3.333 0 0 0 13.334 69.778H53.334L53.332 69.782C62.537 69.782 70 77.241 70 86.45H83.331C83.331 69.878 69.898 56.447 53.332 56.447H53.334 13.334A3.33 3.33 0 0 1 10 53.114z"></path><path fill="none" stroke="#C8C8C8" stroke-linecap="round" stroke-linejoin="round" stroke-miterlimit="10" d="M13.333 49.78A3.33 3.33 0 0 0 10 53.114H10A3.333 3.333 0 0 0 13.334 56.447H17.599A28.6 28.6 0 0 1 20.155 49.78z"></path><path fill="none" stroke="#C8C8C8" stroke-linecap="round" stroke-linejoin="round" stroke-miterlimit="10" d="M90 24.999H83.332z"></path><path fill="none" stroke="#C8C8C8" stroke-linecap="round" stroke-linejoin="round" stroke-miterlimit="10" d="M90 19.998H86.665z"></path><path fill="none" stroke="#C8C8C8" stroke-linecap="round" stroke-linejoin="round" stroke-miterlimit="10" d="M90 14.997H83.332z"></path><path fill="none" stroke="#C8C8C8" stroke-linecap="round" stroke-linejoin="round" stroke-miterlimit="10" d="M84.943 41.667L82.172 39.815z"></path><path fill="none" stroke="#C8C8C8" stroke-linecap="round" stroke-linejoin="round" stroke-miterlimit="10" d="M89.425 30.849L86.154 30.203z"></path><path fill="none" stroke="#C8C8C8" stroke-linecap="round" stroke-linejoin="round" stroke-miterlimit="10" d="M87.715 36.478L81.556 33.928z"></path><path fill="none" stroke="#C8C8C8" stroke-linecap="round" stroke-linejoin="round" stroke-miterlimit="10" d="M76.667 10.002V24.998H76.665C76.665 30.47 74.018 35.309 69.945 38.348 70.82 38.561 71.683 38.826 72.523 39.171A18.1 18.1 0 0 1 78.393 43.091L78.384 43.113A28 28 0 0 1 81.107 46.306C86.596 40.869 90 33.333 90 24.999V10.002z"></path></svg></g></svg></g></svg></g></svg></g></svg></g><defs></defs></svg><rect width="395.52" height="132.9892119697676" fill="none" stroke="none" visibility="hidden"></rect></g></svg></g></svg>